<svg xmlns="http://www.w3.org/2000/svg" viewBox="0 0 24 24"><rect width="24" height="24" rx="5" fill="#E8EDF4"></rect><path fill="#0B0F16" d="M12 3.2C7 3.2 3 7.2 3 12.2c0 4 2.6 7.35 6.16 8.55.45.08.62-.2.62-.44 0-.22-.01-.78-.01-1.53-2.5.54-3.03-1.2-3.03-1.2-.41-1.05-1-1.32-1-1.32-.82-.56.06-.55.06-.55.9.07 1.38.93 1.38.93.8 1.38 2.1.98 2.63.75.08-.58.31-.98.57-1.2-2-.23-4.1-1-4.1-4.45 0-.98.35-1.78.93-2.4-.1-.23-.4-1.15.08-2.4 0 0 .76-.24 2.48.92a8.6 8.6 0 0 1 4.5 0c1.72-1.16 2.47-.92 2.47-.92.49 1.25.18 2.17.09 2.4.58.62.92 1.42.92 2.4 0 3.46-2.1 4.22-4.11 4.44.32.28.61.83.61 1.68 0 1.21-.01 2.19-.01 2.49 0 .24.16.52.63.43A9 9 0 0 0 21 12.2c0-5-4-9-9-9Z"></path></svg>